<?xml version="1.0" encoding="UTF-8" standalone="no"?><!DOCTYPE svg PUBLIC "-//W3C//DTD SVG 1.1//EN" "http://www.w3.org/Graphics/SVG/1.1/DTD/svg11.dtd"><svg width="100%" height="100%" viewBox="0 0 3016 2614" version="1.1" xmlns="http://www.w3.org/2000/svg" xmlns:xlink="http://www.w3.org/1999/xlink" xml:space="preserve" xmlns:serif="http://www.serif.com/" style="fill-rule:evenodd;clip-rule:evenodd;stroke-miterlimit:10;"><g><path d="M2100.53,1250.62c283.244,-28.84 524.002,53.809 537.304,184.45c13.301,130.64 -205.858,260.117 -489.102,288.957c-283.244,28.84 -524.002,-53.809 -537.304,-184.45c-13.301,-130.64 205.858,-260.117 489.102,-288.957Z" style="fill:#fff;stroke:#232323;stroke-width:75px;"/><g><path d="M1608.03,1502.29l527.917,-5.833l-521.667,80.416l-6.25,-74.583Z" style="fill:#232323;fill-rule:nonzero;"/></g><path d="M1955.11,1684.79c61.25,10.417 125.417,12.917 190,6.25c194.584,-20 365,-115.417 451.25,-251.667c-12.5,-12.916 -25.833,-25 -40,-36.666c-97.916,150.833 -285.416,256.25 -497.916,277.916c-35,3.75 -69.167,5 -103.334,4.167Z" style="fill:#bcbec0;fill-rule:nonzero;"/></g><g><path d="M1973.93,864.802c245.889,-188.366 516.138,-249.113 603.12,-135.569c86.981,113.543 -42.032,358.656 -287.921,547.022c-245.89,188.367 -516.139,249.114 -603.12,135.57c-86.981,-113.544 42.032,-358.656 287.921,-547.023Z" style="fill:#fff;stroke:#232323;stroke-width:75px;"/><g><path d="M1663.86,1381.87l483.75,-309.166l-439.166,369.583l-44.584,-60.417Z" style="fill:#232323;fill-rule:nonzero;"/></g><path d="M2087.61,1350.2c62.5,-25 123.334,-59.584 179.584,-102.917c168.75,-129.167 272.083,-315 274.166,-490.833c-18.75,-4.584 -37.916,-8.334 -57.916,-10.834c-4.584,195.834 -118.334,400.417 -302.5,541.667c-30,23.333 -61.25,44.167 -93.334,62.917Z" style="fill:#bcbec0;fill-rule:nonzero;"/></g><g><path d="M377.462,1434.9c13.301,-130.64 254.059,-213.289 537.303,-184.449c283.244,28.839 502.404,158.317 489.102,288.957c-13.302,130.64 -254.059,213.289 -537.304,184.449c-283.244,-28.84 -502.403,-158.317 -489.101,-288.957Z" style="fill:#fff;stroke:#232323;stroke-width:75px;"/><g><path d="M1400.53,1576.87l-521.667,-80.416l527.917,5.833l-6.25,74.583Z" style="fill:#232323;fill-rule:nonzero;"/></g><path d="M1059.7,1684.79c-61.25,10.417 -125.417,12.917 -190,6.25c-194.584,-20 -365,-115.417 -451.25,-251.667c12.5,-12.916 25.833,-25 40,-36.666c97.916,150.833 285.416,256.25 497.916,277.916c35,3.75 69.167,5 103.334,4.167Z" style="fill:#bcbec0;fill-rule:nonzero;"/></g><g><path d="M437.277,729.362c86.982,-113.543 357.23,-52.797 603.12,135.57c245.889,188.366 374.902,433.479 287.921,547.022c-86.982,113.544 -357.231,52.797 -603.12,-135.569c-245.889,-188.367 -374.902,-433.479 -287.921,-547.023Z" style="fill:#fff;stroke:#232323;stroke-width:75px;"/><g><path d="M1306.36,1442.29l-439.166,-369.583l483.75,309.166l-44.584,60.417Z" style="fill:#232323;fill-rule:nonzero;"/></g><path d="M927.198,1350.2c-62.5,-25 -123.334,-59.584 -179.584,-102.917c-168.75,-129.167 -272.083,-315 -274.166,-490.833c18.75,-4.584 37.916,-8.334 57.916,-10.834c4.584,195.834 118.334,400.417 302.5,541.667c30,23.333 61.25,44.167 93.334,62.917Z" style="fill:#bcbec0;fill-rule:nonzero;"/></g><ellipse cx="1498.86" cy="1635.62" rx="292.5" ry="601.25" style="fill:#f5b900;stroke:#232323;stroke-width:75px;"/><path d="M1498.86,1074.79c-66.666,56.25 -122.5,122.917 -165.833,199.167c37.5,78.333 98.333,144.166 173.333,187.916c69.584,-44.166 125.834,-108.75 160.417,-183.333c-43.333,-78.333 -99.583,-146.667 -167.917,-203.75Z" style="fill:#b88b00;fill-rule:nonzero;"/><g><g><path d="M1764.7,1433.95l-531.25,-0c-15.417,57.083 -24.584,116.666 -26.667,178.333l584.583,0c-2.083,-61.667 -11.25,-121.25 -26.666,-178.333Zm-483.75,531.666l435.416,0c26.667,-55.833 47.084,-115.833 59.584,-178.333l-554.584,0c12.5,62.5 32.917,122.083 59.584,178.333Z" style="fill:#232323;fill-rule:nonzero;"/></g><g><path d="M1764.7,1433.95l-531.25,-0c-15.417,57.083 -24.584,116.666 -26.667,178.333l584.583,0c-2.083,-61.667 -11.25,-121.25 -26.666,-178.333Zm-483.75,531.666l435.416,0c26.667,-55.833 47.084,-115.833 59.584,-178.333l-554.584,0c12.5,62.5 32.917,122.083 59.584,178.333Z" style="fill:#232323;fill-rule:nonzero;"/></g></g><path d="M1260.11,958.12c3.75,173.75 103.334,323.334 247.084,398.75c140.416,-81.25 233.75,-235 230,-408.75c-0,-4.166 -0.417,-8.75 -0.417,-12.916c-15,-305 -474.583,-295 -476.667,10l0,12.916Z" style="fill:#f5b900;fill-rule:nonzero;stroke:#232323;stroke-width:75px;"/><path d="M1128.45,376.87c-0,0 22.083,481.25 302.083,657.084" style="fill:none;fill-rule:nonzero;stroke:#232323;stroke-width:75px;"/><path d="M1886.36,376.87c0,0 -22.083,481.25 -302.083,657.084" style="fill:none;fill-rule:nonzero;stroke:#232323;stroke-width:75px;"/><g><path d="M1536.36,2236.87l-37.5,203.75l-37.5,-203.75l75,0Z" style="fill:#232323;fill-rule:nonzero;"/></g></svg>