<?xml version="1.0" encoding="UTF-8" standalone="no"?><!DOCTYPE svg PUBLIC "-//W3C//DTD SVG 1.1//EN" "http://www.w3.org/Graphics/SVG/1.1/DTD/svg11.dtd"><svg width="100%" height="100%" viewBox="0 0 3016 2614" version="1.1" xmlns="http://www.w3.org/2000/svg" xmlns:xlink="http://www.w3.org/1999/xlink" xml:space="preserve" xmlns:serif="http://www.serif.com/" style="fill-rule:evenodd;clip-rule:evenodd;stroke-miterlimit:10;"><g><path d="M2324.78,1251.27c176.171,20.657 303.489,89.808 313.06,183.803c13.301,130.64 -205.858,260.117 -489.102,288.957c-135.744,13.821 -261.73,2.036 -357.598,-28.366" style="fill:none;stroke:#6cb165;stroke-width:75px;"/><g><path d="M1608.03,1502.29l527.917,-5.833l-521.667,80.416l-6.25,-74.583Z" style="fill:#6cb165;fill-rule:nonzero;"/></g></g><g><path d="M1689.88,1197.75c47.689,-107.085 147.971,-228.707 284.048,-332.95c245.889,-188.366 516.138,-249.113 603.12,-135.569c86.981,113.543 -42.032,358.656 -287.921,547.022c-178.219,136.527 -369.235,206.012 -493.992,190.685" style="fill:none;stroke:#6cb165;stroke-width:75px;"/><g><path d="M1767.66,1392.45l-17.197,-65.931l397.15,-253.82l-379.953,319.751Z" style="fill:#6cb165;fill-rule:nonzero;"/></g></g><g><path d="M1211.88,1699.24c-94.224,27.605 -215.293,37.86 -345.315,24.621c-283.244,-28.84 -502.403,-158.317 -489.101,-288.957c9.537,-93.672 136.015,-162.67 311.245,-183.588" style="fill:none;stroke:#6cb165;stroke-width:75px;"/><g><path d="M1400.53,1576.87l-521.667,-80.416l527.917,5.833l-6.25,74.583Z" style="fill:#6cb165;fill-rule:nonzero;"/></g></g><g><path d="M1217.2,1467.31c-124.793,14.351 -314.728,-55.119 -492.001,-190.921c-245.889,-188.367 -374.902,-433.479 -287.921,-547.023c86.982,-113.543 357.23,-52.797 603.12,135.57c127.417,97.609 223.45,210.456 274.308,312.337" style="fill:none;stroke:#6cb165;stroke-width:75px;"/><g><path d="M1258.8,1322.98l-23.967,59.112l-367.637,-309.387l391.604,250.275Z" style="fill:#6cb165;fill-rule:nonzero;"/></g></g><path d="M1690.54,1181.6c61.753,110.272 100.824,272.843 100.824,454.023c0,331.839 -131.064,601.25 -292.5,601.25c-161.435,0 -292.5,-269.411 -292.5,-601.25c0,-187.814 41.985,-355.63 107.697,-465.922" style="fill:none;stroke:#6cb165;stroke-width:75px;"/><g><g><path d="M1764.7,1433.95l-531.25,-0c-15.417,57.083 -24.584,116.666 -26.667,178.333l584.583,0c-2.083,-61.667 -11.25,-121.25 -26.666,-178.333Zm-483.75,531.666l435.416,0c26.667,-55.833 47.084,-115.833 59.584,-178.333l-554.584,0c12.5,62.5 32.917,122.083 59.584,178.333Z" style="fill:#6cb165;fill-rule:nonzero;"/></g><g><path d="M1764.7,1433.95l-531.25,-0c-15.417,57.083 -24.584,116.666 -26.667,178.333l584.583,0c-2.083,-61.667 -11.25,-121.25 -26.666,-178.333Zm-483.75,531.666l435.416,0c26.667,-55.833 47.084,-115.833 59.584,-178.333l-554.584,0c12.5,62.5 32.917,122.083 59.584,178.333Z" style="fill:#6cb165;fill-rule:nonzero;"/></g></g><path d="M1260.11,958.12c3.75,173.75 103.334,323.334 247.084,398.75c140.416,-81.25 233.75,-235 230,-408.75c-0,-4.166 -0.417,-8.75 -0.417,-12.916c-15,-305 -474.583,-295 -476.667,10l0,12.916Z" style="fill:none;fill-rule:nonzero;stroke:#6cb165;stroke-width:75px;"/><path d="M1128.45,376.87c-0,0 22.083,481.25 302.083,657.084" style="fill:none;fill-rule:nonzero;stroke:#6cb165;stroke-width:75px;"/><path d="M1886.36,376.87c0,0 -22.083,481.25 -302.083,657.084" style="fill:none;fill-rule:nonzero;stroke:#6cb165;stroke-width:75px;"/><g><path d="M1536.36,2236.87l-37.5,203.75l-37.5,-203.75l75,0Z" style="fill:#6cb165;fill-rule:nonzero;"/></g></svg>